999
FreeCAD v0.20 29410 (Git)
  0
SECTION
  2
HEADER
  9
$ACADVER
  1
AC1014
  9
$ACADMAINTVER
 70
     9
  9
$DWGCODEPAGE
  3
ANSI_1252
  9
$TEXTSTYLE
  7
STANDARD
  9
$DIMSTYLE
  2
STANDARD
  9
$DIMTXSTY
  7
STANDARD
  9
$CMLSTYLE
  2
STANDARD
  9
$LUNITS
 70
2
  9
$INSUNITS
 70
4
  9
$PEXTMAX
 10
50
 20
50
 30
50
  9
$PEXTMIN
 10
0
 20
0
 30
0
  9
$HANDSEED
  5
FFFF
  0
ENDSEC
  0
SECTION
  2
CLASSES
  0
CLASS
  1
ACDBDICTIONARYWDFLT
  2
AcDbDictionaryWithDefault
  3
ObjectDBX Classes
 90
        0
280
     0
281
     0
  0
CLASS
  1
XRECORD
  2
AcDbXrecord
  3
ObjectDBX Classes
 90
        0
280
     0
281
     0
  0
CLASS
  1
LWPOLYLINE
  2
AcDbPolyline
  3
ObjectDBX Classes
 90
        0
280
     0
281
     1
  0
ENDSEC
  0
SECTION
  2
TABLES
  0
TABLE
  2
VPORT
  5
20
330
0
100
AcDbSymbolTable
 70
     1
  0
VPORT
  5
21
330
20
100
AcDbSymbolTableRecord
100
AcDbViewportTableRecord
  2
*ACTIVE
 70
     0
  0
ENDTAB
  0
TABLE
  2
LTYPE
  5
22
330
0
100
AcDbSymbolTable
 70
     1
  0
LTYPE
  5
23
330
21
100
AcDbSymbolTableRecord
100
AcDbLinetypeTableRecord
  2
BYBLOCK
 70
     0
  3

 72
    65
 73
     0
 40
0.0
  0
LTYPE
  5
24
330
21
100
AcDbSymbolTableRecord
100
AcDbLinetypeTableRecord
  2
BYLAYER
 70
     0
  3

 72
    65
 73
     0
 40
0.0
  0
LTYPE
  5
25
330
21
100
AcDbSymbolTableRecord
100
AcDbLinetypeTableRecord
  2
CONTINUOUS
 70
     0
  3
Solid line
 72
    65
 73
     0
 40
0.0
  0
ENDTAB
  0
TABLE
  2
LAYER
  5
A49
330
0
100
AcDbSymbolTable
 70
3
  0
LAYER
  5
A4A
330
A49
100
AcDbSymbolTableRecord
100
AcDbLayerTableRecord
  2
0
 70
   0
 62
   7
  6
CONTINUOUS
  0
LAYER
  5
A4B
330
A49
100
AcDbSymbolTableRecord
100
AcDbLayerTableRecord
  2
none
 70
    0
 62
    7
  6
CONTINUOUS
  0
LAYER
  5
A4C
330
A49
100
AcDbSymbolTableRecord
100
AcDbLayerTableRecord
  2
Body004_proj
 70
    0
 62
    7
  6
CONTINUOUS
  0
ENDTAB
  0
TABLE
  2
STYLE
  5
70
330
0
100
AcDbSymbolTable
 70
     2
  0
STYLE
  5
71
330
70
100
AcDbSymbolTableRecord
100
AcDbTextStyleTableRecord
  2
STANDARD
 70
     0
 40
0.0
 41
1.0
 50
0.0
 71
     0
 42
2.5
  3
arial.ttf
  4

  0
STYLE
  5
72
330
70
100
AcDbSymbolTableRecord
100
AcDbTextStyleTableRecord
  2
ANNOTATIVE
 70
     0
 40
0.0
 41
1.0
 50
0.0
 71
     0
 42
2.5
  3
arial.ttf
  4

  0
ENDTAB
  0
TABLE
  2
VIEW
  5
73
330
0
100
AcDbSymbolTable
 70
     0
  0
ENDTAB
  0
TABLE
  2
UCS
  5
74
330
0
100
AcDbSymbolTable
 70
     0
  0
ENDTAB
  0
TABLE
  2
APPID
  5
75
330
0
100
AcDbSymbolTable
 70
     2
  0
APPID
  5
76
330
75
100
AcDbSymbolTableRecord
100
AcDbRegAppTableRecord
  2
ACAD
 70
     0
  0
APPID
  5
77
330
75
100
AcDbSymbolTableRecord
100
AcDbRegAppTableRecord
  2
ACADANNOTATIVE
 70
     0
  0
ENDTAB
  0
TABLE
  2
DIMSTYLE
  5
78
330
0
100
AcDbSymbolTable
 70
     2
  0
DIMSTYLE
105
79
330
78
100
AcDbSymbolTableRecord
100
AcDbDimStyleTableRecord
  2
STANDARD
 70
     0
  3

  4

  5

  6

  7

 40
0.0
 41
2.5
 42
0.625
 43
3.75
 44
1.25
 45
0.0
 46
0.0
 47
0.0
 48
0.0
140
2.5
141
2.5
142
0.0
143
0.03937007874016
144
1.0
145
0.0
146
1.0
147
0.625
 71
     0
 72
     0
 73
     0
 74
     0
 75
     0
 76
     0
 77
     1
 78
     8
170
     0
171
     3
172
     1
173
     0
174
     0
175
     0
176
     0
177
     0
178
     0
270
     2
271
     2
272
     2
273
     2
274
     3
340
71
275
     0
280
     0
281
     0
282
     0
283
     0
284
     8
285
     0
286
     0
287
     3
288
     0
  0
ENDTAB
  0
TABLE
  2
BLOCK_RECORD
  5
A01
330
0
100
AcDbSymbolTable
  70
5
  0
BLOCK_RECORD
  5
A02
330
A01
100
AcDbSymbolTableRecord
100
AcDbBlockTableRecord
  2
*MODEL_SPACE
  0
BLOCK_RECORD
  5
A03
330
A01
100
AcDbSymbolTableRecord
100
AcDbBlockTableRecord
  2
*PAPER_SPACE
  0
ENDTAB
  0
ENDSEC
  0
SECTION
  2
BLOCKS
  0
BLOCK
  5
A04
330
A02
100
AcDbEntity
  8
0
100
AcDbBlockBegin
  2
*MODEL_SPACE
 70
   0
 10
0
 20
0
 30
0
  3
*MODEL_SPACE
  1
 
  0
ENDBLK
  5
A05
330
A02
100
AcDbEntity
  8
0
100
AcDbBlockEnd
  0
BLOCK
  5
A06
330
A03
100
AcDbEntity
 67
1
  8
0
100
AcDbBlockBegin
  2
*PAPER_SPACE
 70
   0
 10
0
 20
0
 30
0
  3
*PAPER_SPACE
  1
 
  0
ENDBLK
  5
A07
330
A03
100
AcDbEntity
 67
    1
  8
0
100
AcDbBlockEnd
  0
ENDSEC
  0
SECTION
  2
ENTITIES
  0
LINE
  5
A08
330
A02
100
AcDbEntity
  8
Body004_proj
100
AcDbLine
 10
-29.3
 20
21.875
 30
0
 11
-19.3
 21
21.875
 31
0
  0
LINE
  5
A09
330
A02
100
AcDbEntity
  8
Body004_proj
100
AcDbLine
 10
-29.3
 20
5.875
 30
0
 11
-29.3
 21
21.875
 31
0
  0
LINE
  5
A0A
330
A02
100
AcDbEntity
  8
Body004_proj
100
AcDbLine
 10
-19.3
 20
21.875
 30
0
 11
-19.3
 21
5.875
 31
0
  0
LINE
  5
A0B
330
A02
100
AcDbEntity
  8
Body004_proj
100
AcDbLine
 10
-19.3
 20
5.875
 30
0
 11
-29.3
 21
5.875
 31
0
  0
LINE
  5
A0C
330
A02
100
AcDbEntity
  8
Body004_proj
100
AcDbLine
 10
-29.3
 20
21.875
 30
0
 11
-20.55
 21
21.875
 31
0
  0
LINE
  5
A0D
330
A02
100
AcDbEntity
  8
Body004_proj
100
AcDbLine
 10
-20.55
 20
21.875
 30
0
 11
-19.3
 21
21.875
 31
0
  0
LINE
  5
A0E
330
A02
100
AcDbEntity
  8
Body004_proj
100
AcDbLine
 10
-29.3
 20
5.875
 30
0
 11
-29.3
 21
8.375
 31
0
  0
SPLINE
  5
A0F
330
A02
100
AcDbEntity
  8
Body004_proj
100
AcDbSpline
210
0
220
0
230
1
 70
8
 71
2
 72
30
 73
27
 74
0
 40
1.5708
 40
1.5708
 40
1.5708
 40
1.683
 40
1.683
 40
1.9074
 40
1.9074
 40
2.0196
 40
2.0196
 40
2.1318
 40
2.1318
 40
2.24399
 40
2.24399
 40
2.35619
 40
2.35619
 40
2.46839
 40
2.46839
 40
2.58059
 40
2.58059
 40
2.69279
 40
2.69279
 40
2.80499
 40
2.80499
 40
2.91719
 40
2.91719
 40
3.02939
 40
3.02939
 40
3.14159
 40
3.14159
 40
3.14159
 10
-29.3
 20
10.7
 30
0
 10
-29.3
 20
10.5698
 30
0
 10
-29.3
 20
10.4397
 30
0
 10
-29.3
 20
10.1808
 30
0
 10
-29.3
 20
9.9321
 30
0
 10
-29.3
 20
9.81166
 30
0
 10
-29.3
 20
9.69122
 30
0
 10
-29.3
 20
9.57712
 30
0
 10
-29.3
 20
9.46303
 30
0
 10
-29.3
 20
9.35671
 30
0
 10
-29.3
 20
9.25039
 30
0
 10
-29.3
 20
9.15318
 30
0
 10
-29.3
 20
9.05598
 30
0
 10
-29.3
 20
8.96911
 30
0
 10
-29.3
 20
8.88224
 30
0
 10
-29.3
 20
8.8068
 30
0
 10
-29.3
 20
8.73137
 30
0
 10
-29.3
 20
8.66831
 30
0
 10
-29.3
 20
8.60525
 30
0
 10
-29.3
 20
8.55536
 30
0
 10
-29.3
 20
8.50547
 30
0
 10
-29.3
 20
8.46938
 30
0
 10
-29.3
 20
8.43329
 30
0
 10
-29.3
 20
8.41146
 30
0
 10
-29.3
 20
8.38962
 30
0
 10
-29.3
 20
8.38231
 30
0
 10
-29.3
 20
8.375
 30
0
  0
LINE
  5
A10
330
A02
100
AcDbEntity
  8
Body004_proj
100
AcDbLine
 10
-29.3
 20
17.05
 30
0
 11
-29.3
 21
10.7
 31
0
  0
SPLINE
  5
A11
330
A02
100
AcDbEntity
  8
Body004_proj
100
AcDbSpline
210
0
220
0
230
1
 70
8
 71
2
 72
30
 73
27
 74
0
 40
0
 40
0
 40
0
 40
0.1122
 40
0.1122
 40
0.224399
 40
0.224399
 40
0.336599
 40
0.336599
 40
0.448799
 40
0.448799
 40
0.560999
 40
0.560999
 40
0.673198
 40
0.673198
 40
0.785398
 40
0.785398
 40
0.897598
 40
0.897598
 40
1.0098
 40
1.0098
 40
1.122
 40
1.122
 40
1.2342
 40
1.2342
 40
1.3464
 40
1.3464
 40
1.5708
 40
1.5708
 40
1.5708
 10
-29.3
 20
19.375
 30
0
 10
-29.3
 20
19.3677
 30
0
 10
-29.3
 20
19.3604
 30
0
 10
-29.3
 20
19.3385
 30
0
 10
-29.3
 20
19.3167
 30
0
 10
-29.3
 20
19.2806
 30
0
 10
-29.3
 20
19.2445
 30
0
 10
-29.3
 20
19.1946
 30
0
 10
-29.3
 20
19.1448
 30
0
 10
-29.3
 20
19.0817
 30
0
 10
-29.3
 20
19.0186
 30
0
 10
-29.3
 20
18.9432
 30
0
 10
-29.3
 20
18.8678
 30
0
 10
-29.3
 20
18.7809
 30
0
 10
-29.3
 20
18.694
 30
0
 10
-29.3
 20
18.5968
 30
0
 10
-29.3
 20
18.4996
 30
0
 10
-29.3
 20
18.3933
 30
0
 10
-29.3
 20
18.287
 30
0
 10
-29.3
 20
18.1729
 30
0
 10
-29.3
 20
18.0588
 30
0
 10
-29.3
 20
17.9383
 30
0
 10
-29.3
 20
17.8179
 30
0
 10
-29.3
 20
17.6926
 30
0
 10
-29.3
 20
17.5674
 30
0
 10
-29.3
 20
17.3112
 30
0
 10
-29.3
 20
17.05
 30
0
  0
LINE
  5
A12
330
A02
100
AcDbEntity
  8
Body004_proj
100
AcDbLine
 10
-29.3
 20
19.375
 30
0
 11
-29.3
 21
21.875
 31
0
  0
LINE
  5
A13
330
A02
100
AcDbEntity
  8
Body004_proj
100
AcDbLine
 10
-19.3
 20
21.875
 30
0
 11
-19.3
 21
20.625
 31
0
  0
LINE
  5
A14
330
A02
100
AcDbEntity
  8
Body004_proj
100
AcDbLine
 10
-19.3
 20
20.625
 30
0
 11
-19.3
 21
18.45
 31
0
  0
SPLINE
  5
A15
330
A02
100
AcDbEntity
  8
Body004_proj
100
AcDbSpline
210
0
220
0
230
1
 70
8
 71
2
 72
28
 73
25
 74
0
 40
-1.51e-13
 40
-1.51e-13
 40
-1.51e-13
 40
0.1122
 40
0.1122
 40
0.224399
 40
0.224399
 40
0.336599
 40
0.336599
 40
0.448799
 40
0.448799
 40
0.560999
 40
0.560999
 40
0.673198
 40
0.673198
 40
0.785398
 40
0.785398
 40
0.897598
 40
0.897598
 40
1.0098
 40
1.0098
 40
1.122
 40
1.122
 40
1.3464
 40
1.3464
 40
1.5708
 40
1.5708
 40
1.5708
 10
-19.3
 20
18.45
 30
0
 10
-19.3
 20
18.4456
 30
0
 10
-19.3
 20
18.4412
 30
0
 10
-19.3
 20
18.428
 30
0
 10
-19.3
 20
18.4149
 30
0
 10
-19.3
 20
18.3932
 30
0
 10
-19.3
 20
18.3714
 30
0
 10
-19.3
 20
18.3414
 30
0
 10
-19.3
 20
18.3114
 30
0
 10
-19.3
 20
18.2734
 30
0
 10
-19.3
 20
18.2354
 30
0
 10
-19.3
 20
18.19
 30
0
 10
-19.3
 20
18.1446
 30
0
 10
-19.3
 20
18.0923
 30
0
 10
-19.3
 20
18.0399
 30
0
 10
-19.3
 20
17.9814
 30
0
 10
-19.3
 20
17.9229
 30
0
 10
-19.3
 20
17.8589
 30
0
 10
-19.3
 20
17.7948
 30
0
 10
-19.3
 20
17.7261
 30
0
 10
-19.3
 20
17.6574
 30
0
 10
-19.3
 20
17.514
 30
0
 10
-19.3
 20
17.3615
 30
0
 10
-19.3
 20
17.2073
 30
0
 10
-19.3
 20
17.05
 30
0
  0
LINE
  5
A16
330
A02
100
AcDbEntity
  8
Body004_proj
100
AcDbLine
 10
-19.3
 20
10.7
 30
0
 11
-19.3
 21
17.05
 31
0
  0
SPLINE
  5
A17
330
A02
100
AcDbEntity
  8
Body004_proj
100
AcDbSpline
210
0
220
0
230
1
 70
8
 71
2
 72
26
 73
23
 74
0
 40
1.5708
 40
1.5708
 40
1.5708
 40
1.9074
 40
1.9074
 40
2.1318
 40
2.1318
 40
2.24399
 40
2.24399
 40
2.35619
 40
2.35619
 40
2.46839
 40
2.46839
 40
2.58059
 40
2.58059
 40
2.69279
 40
2.69279
 40
2.80499
 40
2.80499
 40
2.91719
 40
2.91719
 40
3.02939
 40
3.02939
 40
3.14159
 40
3.14159
 40
3.14159
 10
-19.3
 20
10.7
 30
0
 10
-19.3
 20
10.4628
 30
0
 10
-19.3
 20
10.2376
 30
0
 10
-19.3
 20
10.0904
 30
0
 10
-19.3
 20
9.95515
 30
0
 10
-19.3
 20
9.89113
 30
0
 10
-19.3
 20
9.82711
 30
0
 10
-19.3
 20
9.76858
 30
0
 10
-19.3
 20
9.71005
 30
0
 10
-19.3
 20
9.65774
 30
0
 10
-19.3
 20
9.60544
 30
0
 10
-19.3
 20
9.56001
 30
0
 10
-19.3
 20
9.51459
 30
0
 10
-19.3
 20
9.47661
 30
0
 10
-19.3
 20
9.43864
 30
0
 10
-19.3
 20
9.4086
 30
0
 10
-19.3
 20
9.37856
 30
0
 10
-19.3
 20
9.35683
 30
0
 10
-19.3
 20
9.3351
 30
0
 10
-19.3
 20
9.32195
 30
0
 10
-19.3
 20
9.3088
 30
0
 10
-19.3
 20
9.3044
 30
0
 10
-19.3
 20
9.3
 30
0
  0
LINE
  5
A18
330
A02
100
AcDbEntity
  8
Body004_proj
100
AcDbLine
 10
-19.3
 20
9.3
 30
0
 11
-19.3
 21
7.125
 31
0
  0
LINE
  5
A19
330
A02
100
AcDbEntity
  8
Body004_proj
100
AcDbLine
 10
-19.3
 20
7.125
 30
0
 11
-19.3
 21
5.875
 31
0
  0
ARC
  5
A1A
330
A02
100
AcDbEntity
  8
Body004_proj
100
AcDbCircle
 10
-20.55
 20
20.625
 30
0
 40
1.25
100
AcDbArc
 50
90
 51
0
  0
LINE
  5
A1B
330
A02
100
AcDbEntity
  8
Body004_proj
100
AcDbLine
 10
-29.3
 20
19.375
 30
0
 11
-27.3
 21
19.375
 31
0
  0
LINE
  5
A1C
330
A02
100
AcDbEntity
  8
Body004_proj
100
AcDbLine
 10
-27.3
 20
19.375
 30
0
 11
-27.3
 21
18.45
 31
0
  0
LINE
  5
A1D
330
A02
100
AcDbEntity
  8
Body004_proj
100
AcDbLine
 10
-19.3
 20
18.45
 30
0
 11
-27.3
 21
18.45
 31
0
  0
LINE
  5
A1E
330
A02
100
AcDbEntity
  8
Body004_proj
100
AcDbLine
 10
-26
 20
19.275
 30
0
 11
-23.5
 21
19.275
 31
0
  0
LINE
  5
A1F
330
A02
100
AcDbEntity
  8
Body004_proj
100
AcDbLine
 10
-23.5
 20
19.275
 30
0
 11
-23.5
 21
21.075
 31
0
  0
LINE
  5
A20
330
A02
100
AcDbEntity
  8
Body004_proj
100
AcDbLine
 10
-23.5
 20
21.075
 30
0
 11
-26
 21
21.075
 31
0
  0
LINE
  5
A21
330
A02
100
AcDbEntity
  8
Body004_proj
100
AcDbLine
 10
-26
 20
21.075
 30
0
 11
-26
 21
19.275
 31
0
  0
ARC
  5
A22
330
A02
100
AcDbEntity
  8
Body004_proj
100
AcDbCircle
 10
-20.55
 20
20.625
 30
0
 40
1.25
100
AcDbArc
 50
0
 51
90
  0
LINE
  5
A23
330
A02
100
AcDbEntity
  8
Body004_proj
100
AcDbLine
 10
-19.3
 20
9.3
 30
0
 11
-27.3
 21
9.3
 31
0
  0
ARC
  5
A24
330
A02
100
AcDbEntity
  8
Body004_proj
100
AcDbCircle
 10
-20.55
 20
7.125
 30
0
 40
1.25
100
AcDbArc
 50
0
 51
-90
  0
LINE
  5
A25
330
A02
100
AcDbEntity
  8
Body004_proj
100
AcDbLine
 10
-27.3
 20
9.3
 30
0
 11
-27.3
 21
8.375
 31
0
  0
LINE
  5
A26
330
A02
100
AcDbEntity
  8
Body004_proj
100
AcDbLine
 10
-20.55
 20
5.875
 30
0
 11
-29.3
 21
5.875
 31
0
  0
LINE
  5
A27
330
A02
100
AcDbEntity
  8
Body004_proj
100
AcDbLine
 10
-29.3
 20
8.375
 30
0
 11
-27.3
 21
8.375
 31
0
  0
LINE
  5
A28
330
A02
100
AcDbEntity
  8
Body004_proj
100
AcDbLine
 10
-26
 20
6.675
 30
0
 11
-26
 21
8.475
 31
0
  0
LINE
  5
A29
330
A02
100
AcDbEntity
  8
Body004_proj
100
AcDbLine
 10
-23.5
 20
6.675
 30
0
 11
-26
 21
6.675
 31
0
  0
LINE
  5
A2A
330
A02
100
AcDbEntity
  8
Body004_proj
100
AcDbLine
 10
-23.5
 20
8.475
 30
0
 11
-23.5
 21
6.675
 31
0
  0
LINE
  5
A2B
330
A02
100
AcDbEntity
  8
Body004_proj
100
AcDbLine
 10
-26
 20
8.475
 30
0
 11
-23.5
 21
8.475
 31
0
  0
LINE
  5
A2C
330
A02
100
AcDbEntity
  8
Body004_proj
100
AcDbLine
 10
-29.3
 20
8.375
 30
0
 11
-27.3
 21
8.375
 31
0
  0
SPLINE
  5
A2D
330
A02
100
AcDbEntity
  8
Body004_proj
100
AcDbSpline
210
0
220
0
230
1
 70
8
 71
2
 72
30
 73
27
 74
0
 40
1.5708
 40
1.5708
 40
1.5708
 40
1.683
 40
1.683
 40
1.9074
 40
1.9074
 40
2.0196
 40
2.0196
 40
2.1318
 40
2.1318
 40
2.24399
 40
2.24399
 40
2.35619
 40
2.35619
 40
2.46839
 40
2.46839
 40
2.58059
 40
2.58059
 40
2.69279
 40
2.69279
 40
2.80499
 40
2.80499
 40
2.91719
 40
2.91719
 40
3.02939
 40
3.02939
 40
3.14159
 40
3.14159
 40
3.14159
 10
-27.3
 20
10.7
 30
0
 10
-27.3
 20
10.5698
 30
0
 10
-27.3
 20
10.4397
 30
0
 10
-27.3
 20
10.1808
 30
0
 10
-27.3
 20
9.9321
 30
0
 10
-27.3
 20
9.81166
 30
0
 10
-27.3
 20
9.69122
 30
0
 10
-27.3
 20
9.57712
 30
0
 10
-27.3
 20
9.46303
 30
0
 10
-27.3
 20
9.35671
 30
0
 10
-27.3
 20
9.25039
 30
0
 10
-27.3
 20
9.15318
 30
0
 10
-27.3
 20
9.05598
 30
0
 10
-27.3
 20
8.96911
 30
0
 10
-27.3
 20
8.88224
 30
0
 10
-27.3
 20
8.8068
 30
0
 10
-27.3
 20
8.73137
 30
0
 10
-27.3
 20
8.66831
 30
0
 10
-27.3
 20
8.60525
 30
0
 10
-27.3
 20
8.55536
 30
0
 10
-27.3
 20
8.50547
 30
0
 10
-27.3
 20
8.46938
 30
0
 10
-27.3
 20
8.43329
 30
0
 10
-27.3
 20
8.41146
 30
0
 10
-27.3
 20
8.38962
 30
0
 10
-27.3
 20
8.38231
 30
0
 10
-27.3
 20
8.375
 30
0
  0
LINE
  5
A2E
330
A02
100
AcDbEntity
  8
Body004_proj
100
AcDbLine
 10
-27.3
 20
17.05
 30
0
 11
-27.3
 21
10.7
 31
0
  0
LINE
  5
A2F
330
A02
100
AcDbEntity
  8
Body004_proj
100
AcDbLine
 10
-29.3
 20
19.375
 30
0
 11
-27.3
 21
19.375
 31
0
  0
SPLINE
  5
A30
330
A02
100
AcDbEntity
  8
Body004_proj
100
AcDbSpline
210
0
220
0
230
1
 70
8
 71
2
 72
30
 73
27
 74
0
 40
0
 40
0
 40
0
 40
0.1122
 40
0.1122
 40
0.224399
 40
0.224399
 40
0.336599
 40
0.336599
 40
0.448799
 40
0.448799
 40
0.560999
 40
0.560999
 40
0.673198
 40
0.673198
 40
0.785398
 40
0.785398
 40
0.897598
 40
0.897598
 40
1.0098
 40
1.0098
 40
1.122
 40
1.122
 40
1.2342
 40
1.2342
 40
1.3464
 40
1.3464
 40
1.5708
 40
1.5708
 40
1.5708
 10
-27.3
 20
19.375
 30
0
 10
-27.3
 20
19.3677
 30
0
 10
-27.3
 20
19.3604
 30
0
 10
-27.3
 20
19.3385
 30
0
 10
-27.3
 20
19.3167
 30
0
 10
-27.3
 20
19.2806
 30
0
 10
-27.3
 20
19.2445
 30
0
 10
-27.3
 20
19.1946
 30
0
 10
-27.3
 20
19.1448
 30
0
 10
-27.3
 20
19.0817
 30
0
 10
-27.3
 20
19.0186
 30
0
 10
-27.3
 20
18.9432
 30
0
 10
-27.3
 20
18.8678
 30
0
 10
-27.3
 20
18.7809
 30
0
 10
-27.3
 20
18.694
 30
0
 10
-27.3
 20
18.5968
 30
0
 10
-27.3
 20
18.4996
 30
0
 10
-27.3
 20
18.3933
 30
0
 10
-27.3
 20
18.287
 30
0
 10
-27.3
 20
18.1729
 30
0
 10
-27.3
 20
18.0588
 30
0
 10
-27.3
 20
17.9383
 30
0
 10
-27.3
 20
17.8179
 30
0
 10
-27.3
 20
17.6926
 30
0
 10
-27.3
 20
17.5674
 30
0
 10
-27.3
 20
17.3112
 30
0
 10
-27.3
 20
17.05
 30
0
  0
LINE
  5
A31
330
A02
100
AcDbEntity
  8
Body004_proj
100
AcDbLine
 10
-19.3
 20
5.875
 30
0
 11
-20.55
 21
5.875
 31
0
  0
LINE
  5
A32
330
A02
100
AcDbEntity
  8
Body004_proj
100
AcDbLine
 10
-19.3
 20
18.45
 30
0
 11
-27.3
 21
18.45
 31
0
  0
LINE
  5
A33
330
A02
100
AcDbEntity
  8
Body004_proj
100
AcDbLine
 10
-19.3
 20
18.45
 30
0
 11
-27.3
 21
18.45
 31
0
  0
SPLINE
  5
A34
330
A02
100
AcDbEntity
  8
Body004_proj
100
AcDbSpline
210
0
220
0
230
1
 70
8
 71
2
 72
28
 73
25
 74
0
 40
-1.51e-13
 40
-1.51e-13
 40
-1.51e-13
 40
0.1122
 40
0.1122
 40
0.224399
 40
0.224399
 40
0.336599
 40
0.336599
 40
0.448799
 40
0.448799
 40
0.560999
 40
0.560999
 40
0.673198
 40
0.673198
 40
0.785398
 40
0.785398
 40
0.897598
 40
0.897598
 40
1.0098
 40
1.0098
 40
1.122
 40
1.122
 40
1.3464
 40
1.3464
 40
1.5708
 40
1.5708
 40
1.5708
 10
-27.3
 20
18.45
 30
0
 10
-27.3
 20
18.4456
 30
0
 10
-27.3
 20
18.4412
 30
0
 10
-27.3
 20
18.428
 30
0
 10
-27.3
 20
18.4149
 30
0
 10
-27.3
 20
18.3932
 30
0
 10
-27.3
 20
18.3714
 30
0
 10
-27.3
 20
18.3414
 30
0
 10
-27.3
 20
18.3114
 30
0
 10
-27.3
 20
18.2734
 30
0
 10
-27.3
 20
18.2354
 30
0
 10
-27.3
 20
18.19
 30
0
 10
-27.3
 20
18.1446
 30
0
 10
-27.3
 20
18.0923
 30
0
 10
-27.3
 20
18.0399
 30
0
 10
-27.3
 20
17.9814
 30
0
 10
-27.3
 20
17.9229
 30
0
 10
-27.3
 20
17.8589
 30
0
 10
-27.3
 20
17.7948
 30
0
 10
-27.3
 20
17.7261
 30
0
 10
-27.3
 20
17.6574
 30
0
 10
-27.3
 20
17.514
 30
0
 10
-27.3
 20
17.3615
 30
0
 10
-27.3
 20
17.2073
 30
0
 10
-27.3
 20
17.05
 30
0
  0
LINE
  5
A35
330
A02
100
AcDbEntity
  8
Body004_proj
100
AcDbLine
 10
-27.3
 20
17.05
 30
0
 11
-27.3
 21
10.7
 31
0
  0
LINE
  5
A36
330
A02
100
AcDbEntity
  8
Body004_proj
100
AcDbLine
 10
-19.3
 20
9.3
 30
0
 11
-27.3
 21
9.3
 31
0
  0
SPLINE
  5
A37
330
A02
100
AcDbEntity
  8
Body004_proj
100
AcDbSpline
210
0
220
0
230
1
 70
8
 71
2
 72
26
 73
23
 74
0
 40
1.5708
 40
1.5708
 40
1.5708
 40
1.9074
 40
1.9074
 40
2.1318
 40
2.1318
 40
2.24399
 40
2.24399
 40
2.35619
 40
2.35619
 40
2.46839
 40
2.46839
 40
2.58059
 40
2.58059
 40
2.69279
 40
2.69279
 40
2.80499
 40
2.80499
 40
2.91719
 40
2.91719
 40
3.02939
 40
3.02939
 40
3.14159
 40
3.14159
 40
3.14159
 10
-27.3
 20
10.7
 30
0
 10
-27.3
 20
10.4628
 30
0
 10
-27.3
 20
10.2376
 30
0
 10
-27.3
 20
10.0904
 30
0
 10
-27.3
 20
9.95515
 30
0
 10
-27.3
 20
9.89113
 30
0
 10
-27.3
 20
9.82711
 30
0
 10
-27.3
 20
9.76858
 30
0
 10
-27.3
 20
9.71005
 30
0
 10
-27.3
 20
9.65774
 30
0
 10
-27.3
 20
9.60544
 30
0
 10
-27.3
 20
9.56001
 30
0
 10
-27.3
 20
9.51459
 30
0
 10
-27.3
 20
9.47661
 30
0
 10
-27.3
 20
9.43864
 30
0
 10
-27.3
 20
9.4086
 30
0
 10
-27.3
 20
9.37856
 30
0
 10
-27.3
 20
9.35683
 30
0
 10
-27.3
 20
9.3351
 30
0
 10
-27.3
 20
9.32195
 30
0
 10
-27.3
 20
9.3088
 30
0
 10
-27.3
 20
9.3044
 30
0
 10
-27.3
 20
9.3
 30
0
  0
LINE
  5
A38
330
A02
100
AcDbEntity
  8
Body004_proj
100
AcDbLine
 10
-19.3
 20
9.3
 30
0
 11
-27.3
 21
9.3
 31
0
  0
ARC
  5
A39
330
A02
100
AcDbEntity
  8
Body004_proj
100
AcDbCircle
 10
-20.55
 20
7.125
 30
0
 40
1.25
100
AcDbArc
 50
-90
 51
0
  0
CIRCLE
  5
A3A
330
A02
100
AcDbEntity
  8
Body004_proj
100
AcDbCircle
 10
-20.55
 20
20.625
 40
1.25
  0
LINE
  5
A3B
330
A02
100
AcDbEntity
  8
Body004_proj
100
AcDbLine
 10
-26
 20
19.275
 30
0
 11
-23.5
 21
19.275
 31
0
  0
LINE
  5
A3C
330
A02
100
AcDbEntity
  8
Body004_proj
100
AcDbLine
 10
-23.5
 20
19.275
 30
0
 11
-23.5
 21
21.075
 31
0
  0
LINE
  5
A3D
330
A02
100
AcDbEntity
  8
Body004_proj
100
AcDbLine
 10
-23.5
 20
21.075
 30
0
 11
-26
 21
21.075
 31
0
  0
LINE
  5
A3E
330
A02
100
AcDbEntity
  8
Body004_proj
100
AcDbLine
 10
-26
 20
21.075
 30
0
 11
-26
 21
19.275
 31
0
  0
CIRCLE
  5
A3F
330
A02
100
AcDbEntity
  8
Body004_proj
100
AcDbCircle
 10
-20.55
 20
7.125
 40
1.25
  0
LINE
  5
A40
330
A02
100
AcDbEntity
  8
Body004_proj
100
AcDbLine
 10
-26
 20
6.675
 30
0
 11
-26
 21
8.475
 31
0
  0
LINE
  5
A41
330
A02
100
AcDbEntity
  8
Body004_proj
100
AcDbLine
 10
-23.5
 20
6.675
 30
0
 11
-26
 21
6.675
 31
0
  0
LINE
  5
A42
330
A02
100
AcDbEntity
  8
Body004_proj
100
AcDbLine
 10
-23.5
 20
8.475
 30
0
 11
-23.5
 21
6.675
 31
0
  0
LINE
  5
A43
330
A02
100
AcDbEntity
  8
Body004_proj
100
AcDbLine
 10
-26
 20
8.475
 30
0
 11
-23.5
 21
8.475
 31
0
  0
LINE
  5
A44
330
A02
100
AcDbEntity
  8
Body004_proj
100
AcDbLine
 10
-29.3
 20
10.7
 30
0
 11
-27.3
 21
10.7
 31
0
  0
LINE
  5
A45
330
A02
100
AcDbEntity
  8
Body004_proj
100
AcDbLine
 10
-29.3
 20
17.05
 30
0
 11
-27.3
 21
17.05
 31
0
  0
LINE
  5
A46
330
A02
100
AcDbEntity
  8
Body004_proj
100
AcDbLine
 10
-19.3
 20
17.05
 30
0
 11
-27.3
 21
17.05
 31
0
  0
LINE
  5
A47
330
A02
100
AcDbEntity
  8
Body004_proj
100
AcDbLine
 10
-19.3
 20
10.7
 30
0
 11
-27.3
 21
10.7
 31
0
  0
LINE
  5
A48
330
A02
100
AcDbEntity
  8
Body004_proj
100
AcDbLine
 10
-27.3
 20
8.375
 30
0
 11
-29.3
 21
8.375
 31
0
  0
ENDSEC
  0
SECTION
  2
OBJECTS
  0
DICTIONARY
  5
F000
330
0
100
AcDbDictionary
  3
ACAD_GROUP
350
F001
  0
DICTIONARY
  5
F001
330
F000
100
AcDbDictionary
  0
ENDSEC
  0
EOF